<svg xmlns="http://www.w3.org/2000/svg" width="678" height="599" viewBox="0 0 678 599" version="1.1"><path d="M 159.056 2.113 C 35.256 13.102, -33.290 153.449, 20.650 285.500 C 39.178 330.859, 102.205 424.132, 105.285 410.750 C 109.118 394.091, 110.206 387.740, 112.010 371.500 C 115.817 337.223, 125.376 302.078, 137.396 278.168 C 149.311 254.467, 162.094 213.270, 173.442 162 C 183.949 114.524, 186.148 111.359, 198.771 125.539 C 216.581 145.546, 218.714 160.974, 212.381 224 C 207.531 272.278, 214.298 283.439, 242.409 273.520 C 261.446 266.803, 274.686 256.054, 338.500 195.513 C 393.833 143.017, 411.905 129, 424.255 129 C 435.332 129, 441.210 139.383, 436.506 150.640 C 432.151 161.062, 404.927 192.192, 357.752 240.693 C 333.233 265.900, 331.741 268.051, 334.385 274.379 C 338.530 284.299, 343.296 282.090, 390.500 248.373 C 459.384 199.169, 488.868 180.445, 499.320 179.267 C 515.423 177.452, 520.468 195.128, 507.612 208.319 C 499.774 216.362, 438.421 268.042, 400.839 298.258 C 375.422 318.694, 371.763 322.612, 373.607 327.418 C 375.688 332.842, 380.551 330.898, 446.946 298.093 C 526.857 258.610, 527.234 258.495, 535.005 271.241 C 541.555 281.983, 536.200 287.607, 493.175 315.170 C 437.862 350.605, 398.277 378.050, 397.391 381.579 C 394.940 391.342, 412.678 388.520, 479.331 368.543 C 510.700 359.142, 518.912 360.033, 518.978 372.846 C 519.036 384.281, 501.834 394.462, 437.500 421.063 C 419.900 428.340, 402.027 435.959, 397.781 437.993 C 390.062 441.692, 390.062 441.692, 387.047 432.596 C 378.243 406.037, 369.020 362.904, 369.005 348.218 C 368.992 335.162, 358.387 328.165, 350.201 335.812 C 346.650 339.130, 346.381 340.895, 345.460 367 C 344.496 394.323, 345.063 393.289, 335.296 385.560 C 325.186 377.559, 315.688 366.634, 295.285 339.533 C 275.300 312.987, 270.124 309.449, 261.954 316.750 C 254.499 323.412, 255.641 326.537, 275.440 353.665 C 306.075 395.640, 303.190 396.802, 262.913 358.710 C 239.478 336.546, 232.277 333.828, 226.517 344.967 C 222.792 352.171, 224.510 354.803, 248.412 378.500 C 277.701 407.538, 278.393 409.809, 253.761 396.061 C 216.763 375.411, 215.104 374.771, 209.659 379.054 C 200.950 385.904, 204.211 395.043, 219 405.232 C 268.037 439.016, 263.715 435.203, 252.299 434.612 C 245.213 434.246, 240.723 433.316, 232.764 430.568 C 217.964 425.458, 213.543 426.063, 210.381 433.631 C 207.150 441.364, 210.282 444.162, 230.900 451.962 C 251.968 459.933, 260.067 464.532, 275 477.009 C 279.675 480.915, 287.905 487.105, 293.289 490.764 C 303.078 497.416, 303.078 497.416, 299.289 499.369 C 284.962 506.750, 246.553 522.627, 234.671 526.079 C 223.635 529.286, 228.615 534.358, 270.264 562.328 C 329.258 601.946, 338.303 603.160, 381.452 577.250 C 501.923 504.910, 620.309 378.879, 658.322 282.500 C 714.155 140.941, 623.627 -9.422, 489.439 1.992 C 435.542 6.576, 394.007 29.998, 347.354 82.113 C 335.585 95.259, 336.882 95.183, 327.926 83.250 C 297.551 42.779, 253.932 13.999, 209.500 5.113 C 191.137 1.441, 176.463 0.568, 159.056 2.113" stroke="none" fill="#da3321" fill-rule="evenodd"/></svg>